<?xml version="1.0" encoding="UTF-8"?>
<svg id="Layer_1" xmlns="http://www.w3.org/2000/svg" version="1.1" viewBox="0 0 353.08 255">
  <!-- Generator: Adobe Illustrator 30.0.0, SVG Export Plug-In . SVG Version: 2.1.1 Build 123)  -->
  <defs>
    <style>
      .st0 {
        fill: #fff;
      }
    </style>
  </defs>
  <g>
    <path class="st0" d="M40.76,166.28c0,2.59-.81,4.67-2.43,6.23-1.62,1.56-3.78,2.34-6.47,2.34h-5.92v-16.71h5.92c5.94,0,8.9,2.71,8.9,8.15ZM36.8,166.33c0-1.56-.44-2.8-1.33-3.71-.92-.95-2.23-1.42-3.93-1.42h-1.84v10.59h1.86c1.65,0,2.94-.5,3.87-1.5.91-.97,1.36-2.29,1.36-3.96Z"/>
    <path class="st0" d="M57.86,174.85h-4.1l-1.19-3.72h-5.94l-1.18,3.72h-4.08l6.08-16.71h4.46l5.94,16.71ZM51.71,168.24l-1.79-5.62c-.14-.44-.23-.94-.28-1.5h-.09c-.05.51-.14,1-.29,1.46l-1.82,5.66h4.28Z"/>
    <path class="st0" d="M74.98,174.85h-3.8l-6.89-10.5c-.39-.59-.67-1.05-.84-1.39h-.05c.06.61.09,1.52.09,2.7v9.18h-3.55v-16.71h4.06l6.63,10.17c.23.33.5.79.84,1.36h.05c-.06-.4-.09-1.17-.09-2.3v-9.24h3.55v16.71Z"/>
    <path class="st0" d="M97.85,174.85h-3.72v-10c0-1.05.05-2.24.14-3.58h-.09c-.19,1.03-.37,1.77-.52,2.21l-3.92,11.36h-3.08l-3.99-11.25c-.11-.3-.28-1.08-.52-2.33h-.1c.1,1.56.15,3.01.15,4.34v9.24h-3.39v-16.71h5.51l3.41,9.91c.27.8.47,1.6.59,2.39h.07c.2-.9.42-1.71.66-2.41l3.41-9.88h5.37v16.71Z"/>
    <path class="st0" d="M116.34,174.85h-4.1l-1.19-3.72h-5.94l-1.18,3.72h-4.08l6.08-16.71h4.46l5.94,16.71ZM110.19,168.24l-1.79-5.62c-.14-.44-.23-.94-.28-1.5h-.09c-.05.51-.14,1-.29,1.46l-1.82,5.66h4.28Z"/>
    <path class="st0" d="M131.27,174.85h-4.32l-1.69-4.3c-.56-1.4-1.31-2.1-2.25-2.1h-.82v6.4h-3.76v-16.71h5.97c4.06,0,6.08,1.51,6.08,4.54,0,1.18-.35,2.18-1.04,3-.66.77-1.57,1.31-2.74,1.61v.05c.98.31,1.77,1.17,2.39,2.58l2.18,4.94ZM126.52,163.14c0-1.46-.87-2.19-2.62-2.19h-1.7v4.65h1.63c.83,0,1.5-.24,1.99-.73.47-.47.7-1.04.7-1.73Z"/>
    <path class="st0" d="M147.5,174.85h-4.75l-4.87-7.26c-.1-.16-.25-.46-.44-.92h-.06v8.18h-3.76v-16.71h3.76v7.9h.06c.09-.21.25-.52.47-.93l4.61-6.97h4.49l-5.83,7.97,6.33,8.74Z"/>
    <path class="st0" d="M159.24,170.15c0,1.38-.45,2.51-1.36,3.38-1.12,1.07-2.83,1.61-5.13,1.61-1.73,0-3.17-.31-4.32-.93v-3.73c1.33,1.13,2.8,1.7,4.42,1.7.84,0,1.47-.18,1.9-.55.36-.31.54-.7.54-1.15,0-.54-.26-1.03-.79-1.47-.42-.34-1.19-.77-2.31-1.29-2.55-1.2-3.82-2.84-3.82-4.89,0-1.5.55-2.7,1.66-3.61,1.11-.91,2.59-1.36,4.43-1.36,1.62,0,2.98.21,4.06.64v3.48c-1.13-.78-2.41-1.17-3.85-1.17-.71,0-1.28.16-1.71.47-.42.31-.64.72-.64,1.22,0,.54.19.98.56,1.34.35.33,1.03.74,2.03,1.21,1.48.72,2.54,1.41,3.18,2.09.77.82,1.15,1.83,1.15,3.01Z"/>
    <path class="st0" d="M180.46,174.25c-1.22.59-2.81.89-4.78.89-2.64,0-4.7-.8-6.18-2.4-1.38-1.49-2.07-3.45-2.07-5.89,0-2.69.83-4.86,2.48-6.51,1.65-1.65,3.8-2.48,6.42-2.48,1.62,0,3,.21,4.13.62v3.62c-1.13-.67-2.4-1-3.82-1-1.52,0-2.75.46-3.71,1.39-1.03,1-1.54,2.36-1.54,4.1,0,1.62.45,2.9,1.36,3.86.91.96,2.13,1.44,3.67,1.44s2.81-.36,4.03-1.07v3.44Z"/>
    <path class="st0" d="M195.97,158.13l-5.44,10.77v5.94h-3.76v-5.87l-5.3-10.84h4.3l2.69,6.23c.05.1.17.56.38,1.36h.05c.1-.57.22-1.01.36-1.32l2.74-6.28h3.99Z"/>
    <path class="st0" d="M211.75,174.85h-4.75l-4.87-7.26c-.1-.16-.25-.46-.44-.92h-.06v8.18h-3.76v-16.71h3.76v7.9h.06c.09-.21.25-.52.47-.93l4.62-6.97h4.49l-5.83,7.97,6.33,8.74Z"/>
    <path class="st0" d="M223.3,174.85h-9.95v-16.71h3.76v13.66h6.19v3.05Z"/>
    <path class="st0" d="M235.58,174.85h-10.02v-16.71h9.64v3.06h-5.87v3.72h5.46v3.05h-5.46v3.82h6.26v3.05Z"/>
    <path class="st0" d="M258.46,167.61c0,5.02-2.34,7.53-7.02,7.53s-6.81-2.45-6.81-7.35v-9.65h3.78v9.7c0,2.7,1.06,4.06,3.17,4.06s3.11-1.31,3.11-3.92v-9.84h3.76v9.47Z"/>
    <path class="st0" d="M277.13,174.85h-3.8l-6.89-10.5c-.39-.59-.67-1.05-.84-1.39h-.05c.06.61.09,1.52.09,2.7v9.18h-3.55v-16.71h4.05l6.63,10.17c.22.33.5.79.84,1.36h.05c-.06-.4-.09-1.17-.09-2.3v-9.24h3.55v16.71Z"/>
    <path class="st0" d="M284.72,174.85h-3.77v-16.71h3.77v16.71Z"/>
    <path class="st0" d="M303.85,166.37c0,2.64-.77,4.76-2.3,6.36-1.54,1.6-3.52,2.4-5.96,2.4s-4.31-.77-5.82-2.31c-1.53-1.56-2.29-3.6-2.29-6.12s.75-4.74,2.25-6.36c1.53-1.66,3.57-2.49,6.13-2.49,2.37,0,4.29.78,5.78,2.33,1.48,1.55,2.22,3.62,2.22,6.19ZM299.88,166.58c0-1.76-.38-3.12-1.14-4.08-.73-.94-1.73-1.41-3-1.41-1.35,0-2.42.52-3.19,1.55-.74.99-1.12,2.28-1.12,3.87,0,1.71.41,3.05,1.23,4.02.77.9,1.76,1.35,2.98,1.35s2.26-.44,3.02-1.32c.81-.94,1.21-2.27,1.21-3.99Z"/>
    <path class="st0" d="M321.64,174.85h-3.8l-6.89-10.5c-.39-.59-.67-1.05-.84-1.39h-.05c.06.61.09,1.52.09,2.7v9.18h-3.55v-16.71h4.05l6.63,10.17c.22.33.5.79.84,1.36h.05c-.06-.4-.09-1.17-.09-2.3v-9.24h3.55v16.71Z"/>
  </g>
  <g>
    <path class="st0" d="M107.62,60.67h18.71c9.41,0,16.37,2.36,20.86,7.07,4.49,4.71,6.35,10.8,5.57,18.24-.8,7.67-4.02,14.03-9.64,19.09-5.63,5.06-12.21,7.59-19.73,7.59h-29.08l13.32-52ZM117.35,69.42l-8.81,34.58h11.21c5.89,0,10.66-1.7,14.33-5.11,3.66-3.41,5.77-7.75,6.32-13.03.51-4.86-.79-8.81-3.88-11.86-3.1-3.05-7.56-4.57-13.4-4.57h-5.77Z"/>
    <path class="st0" d="M208.91,61.9l-2.72,9.6c-3.95-1.27-8.04-1.9-12.25-1.9-6.94,0-12.52,2.01-16.75,6.03-4.22,4.02-6.59,8.75-7.11,14.18-.4,4.24.6,7.63,3.01,10.14,2.41,2.52,5.86,3.78,10.34,3.78,5.52,0,11.94-2.02,19.27-6.07l-2.69,11.58c-6.37,2.73-12.52,4.09-18.46,4.09-7.46,0-13.28-2.2-17.47-6.59-4.19-4.39-5.95-10.13-5.27-17.2.83-8.66,4.62-15.75,11.38-21.27,6.76-5.52,15.08-8.28,24.96-8.28,4.31,0,8.9.63,13.76,1.9Z"/>
    <path class="st0" d="M269.63,60.67l-8.38,32.42c-3.46,13.5-12.8,20.25-28.05,20.25-8.04,0-14.03-1.67-17.98-5.01-3.95-3.34-5.61-7.98-4.99-13.94.14-1.31.39-2.69.76-4.13l7.74-29.59h11.98l-7.64,29.44c-.24.99-.4,1.92-.49,2.79-.37,3.57.53,6.27,2.7,8.1,2.18,1.83,5.16,2.74,8.95,2.74s7.12-.99,9.83-2.96c2.71-1.97,4.54-4.84,5.5-8.62l8.1-31.49h11.97Z"/>
  </g>
  <g>
    <path class="st0" d="M308.28,65.95c-5.43-9.27-13.52-16.4-23.53-21.39l-1.86,4.99c6.67,4.11,12.11,9.47,15.98,16.08,13.57,23.16,4.52,55.83-20.25,85.44h16c21.04-29.81,27.42-61.64,13.65-85.12Z"/>
    <path class="st0" d="M229.11,192.5c-59.06,35.04-123.58,35.05-144.11.02-1.97-3.36-3.45-6.92-4.49-10.64h-8.38c.93,7.17,3.14,13.96,6.78,20.16,22.89,39.05,92.79,40.24,156.13,2.67,11.6-6.88,22.17-14.59,31.56-22.82h-21.33c-5.12,3.71-10.52,7.27-16.17,10.62Z"/>
    <path class="st0" d="M95.64,119.9l-3.58-2.26c-7.71,11.06-13.39,22.38-16.78,33.44h5.78c2.69-10.2,7.65-20.77,14.59-31.18Z"/>
  </g>
</svg>